<svg xmlns="http://www.w3.org/2000/svg" viewBox="0 0 287.46 287.46"><defs><style>.cls-1{fill:none;stroke:#1d1d1b;stroke-miterlimit:10;stroke-width:4px;}</style></defs><title>Globe</title><g id="Layer_2" data-name="Layer 2"><g id="Layer_1-2" data-name="Layer 1"><path class="cls-1" d="M285.46,143.73A141.65,141.65,0,0,1,143.77,285.46h-.08A141.73,141.73,0,1,1,143.69,2h.08A141.65,141.65,0,0,1,285.46,143.73Z"/><line class="cls-1" x1="2" y1="143.73" x2="285.46" y2="143.73"/><line class="cls-1" x1="143.73" y1="2" x2="143.73" y2="285.46"/><path class="cls-1" d="M242.94,42.47A176.08,176.08,0,0,1,196.17,65a177.3,177.3,0,0,1-52.44,7.88A177.35,177.35,0,0,1,91.29,65,176.08,176.08,0,0,1,44.52,42.47,141.39,141.39,0,0,1,143.69,2h.08A141.39,141.39,0,0,1,242.94,42.47Z"/><path class="cls-1" d="M143.73,2h0a178.24,178.24,0,0,0-52.4,63,177.5,177.5,0,0,0,0,157.48,178.24,178.24,0,0,0,52.4,63"/><path class="cls-1" d="M242.94,42.47a141.83,141.83,0,0,1,0,202.52"/><path class="cls-1" d="M214.6,143.73a176.26,176.26,0,0,1-18.43,78.74,178.14,178.14,0,0,1-52.4,63h-.08A141.73,141.73,0,1,1,143.69,2h.08a178.14,178.14,0,0,1,52.4,63A176.26,176.26,0,0,1,214.6,143.73Z"/><path class="cls-1" d="M44.52,245a176.7,176.7,0,0,1,198.42,0"/></g></g></svg>